<svg width="735" height="108" viewBox="0 0 735 108" fill="none" xmlns="http://www.w3.org/2000/svg">
<path d="M222.677 37.2708C220.82 26.9892 214.109 14.5656 195.259 14.5656C173.268 14.5656 164.557 32.9868 164.557 53.1216C164.557 73.3992 173.268 91.8204 195.259 91.8204C214.252 91.8204 221.534 79.3968 222.677 66.9732H239.67C237.385 89.964 221.677 106.386 195.688 106.386C166.271 106.386 147.707 83.9664 147.707 53.1216C147.707 22.4196 166.271 0 195.688 0C221.534 0 237.242 16.422 239.67 37.2708H222.677Z" fill="white"/>
<path d="M249.677 2.142H266.67V104.244H249.677V2.142Z" fill="white"/>
<path d="M281.399 104.244V2.142H300.391L346.373 78.8256H346.658V2.142H363.652V104.244H344.802L298.678 27.846H298.392V104.244H281.399Z" fill="white"/>
<path d="M395.245 44.268H445.082V58.8336H395.245V89.8212H453.507V104.244H378.252V2.142H452.079V16.5648H395.245V44.268Z" fill="white"/>
<path d="M541.475 27.846C541.475 40.4124 534.05 46.2672 525.625 49.1232V49.4088C536.335 51.2652 545.474 59.1192 545.474 74.3988C545.474 94.1052 531.908 104.244 510.773 104.244H464.506V2.142H508.346C529.337 2.142 541.475 11.424 541.475 27.846ZM481.499 44.4108H507.775C519.913 44.4108 524.482 39.5556 524.482 30.5592C524.482 21.5628 518.913 16.5648 508.774 16.5648H481.499V44.4108ZM481.499 57.12V89.8212H509.488C524.054 89.8212 528.481 82.9668 528.481 73.3992C528.481 62.9748 522.055 57.12 511.345 57.12H481.499Z" fill="white"/>
<path d="M601.212 106.386C570.367 106.386 551.089 83.8236 551.089 53.1216C551.089 22.4196 570.367 0 601.212 0C631.914 0 651.334 22.4196 651.334 53.1216C651.334 83.8236 631.914 106.386 601.212 106.386ZM601.212 91.8204C624.631 91.8204 634.341 73.8276 634.341 53.1216C634.341 32.5584 624.631 14.5656 601.212 14.5656C577.792 14.5656 567.939 32.5584 567.939 53.1216C567.939 73.8276 577.792 91.8204 601.212 91.8204Z" fill="white"/>
<path d="M680.746 52.122L648.758 2.142H667.18L690.313 39.8412H690.456L713.732 2.142H732.154L700.166 51.8364L734.724 104.244H714.875L690.456 64.4028H690.313L666.037 104.244H646.188L680.746 52.122Z" fill="white"/>
<path d="M50.7309 36.7907C52.632 36.7907 54.1732 38.3319 54.1732 40.233V41.1363C54.1732 44.4675 57.7672 46.56 60.6641 44.9154L95.3893 25.2023C96.8767 24.3579 97.0839 22.3827 95.5822 21.5638L60.1034 1.36192C57.2794 -0.303338 54.1732 2.12991 54.1732 5.40834V8.32216C54.1732 10.2233 52.632 11.7644 50.7309 11.7644C48.8298 11.7644 47.2886 10.2233 47.2886 8.32216V5.03323C47.2886 2.01442 44.4867 -0.128209 41.8613 1.36192L6.43246 21.5638C4.93424 22.3811 5.12502 24.3786 6.6094 25.2207L40.9631 44.7102C43.7867 46.3121 47.2886 44.2725 47.2886 41.0262V40.233C47.2886 38.3319 48.8298 36.7907 50.7309 36.7907ZM54.4248 106.895C54.4248 107.449 54.949 107.823 55.4298 107.548L94.7784 85.1344C97.0449 83.8985 96.6102 80.8994 94.3012 79.7449L91.9006 78.5446C90.1889 77.6888 89.498 75.6052 90.3594 73.8962C91.2181 72.1924 93.2947 71.5062 94.9994 72.363L98.7809 74.2636C100.257 75.0053 101.965 74.1222 101.965 72.4707V33.3232C101.965 31.3724 99.9113 30.4466 98.2172 31.4138L65.2339 50.2449C62.3001 51.9199 62.4298 56.1927 65.4598 57.6868L66.1461 58.0252C67.8588 58.8697 68.5605 60.9443 67.7121 62.6551C66.8672 64.3588 64.8035 65.0583 63.0968 64.2196L61.681 63.5238C58.3351 61.8795 54.4248 64.3148 54.4248 68.0429V106.895ZM46.5851 107.548C47.0274 107.843 47.5399 107.471 47.5399 106.939V68.043C47.5399 64.3149 43.6295 61.8795 40.2835 63.5238L38.8676 64.2196C37.1609 65.0583 35.0972 64.3588 34.2523 62.6551C33.4039 60.9443 34.1056 58.8697 35.8184 58.0252L36.5047 57.6868C39.5347 56.1928 39.6644 51.9199 36.7305 50.2449L3.74715 31.4137C2.05309 30.4466 0 31.3725 0 33.3232V72.4707C0 74.071 1.70978 74.9614 3.14254 74.2486L6.96506 72.3471C8.67184 71.4981 10.7439 72.1874 11.6019 73.8896C12.4651 75.6022 11.7729 77.6902 10.0575 78.5479L7.66163 79.7458C5.35357 80.8998 4.93692 83.8698 7.18624 85.1344L46.5851 107.548Z" fill="white"/>
</svg>
